<?xml version="1.0" encoding="UTF-8" standalone="no"?>
<!-- Generator: Adobe Illustrator 25.4.1, SVG Export Plug-In . SVG Version: 6.00 Build 0)  -->

<svg
   xmlns:dc="http://purl.org/dc/elements/1.1/"
   xmlns:cc="http://creativecommons.org/ns#"
   xmlns:rdf="http://www.w3.org/1999/02/22-rdf-syntax-ns#"
   xmlns:svg="http://www.w3.org/2000/svg"
   xmlns="http://www.w3.org/2000/svg"
   xmlns:sodipodi="http://sodipodi.sourceforge.net/DTD/sodipodi-0.dtd"
   xmlns:inkscape="http://www.inkscape.org/namespaces/inkscape"
   version="1.1"
   id="Layer_1"
   x="0px"
   y="0px"
   viewBox="0 0 41.5 52.8"
   style="enable-background:new 0 0 41.5 52.8;"
   xml:space="preserve"
   sodipodi:docname="uchicago.svg"
   inkscape:version="0.92.4 (5da689c313, 2019-01-14)"><metadata
   id="metadata10"><rdf:RDF><cc:Work
       rdf:about=""><dc:format>image/svg+xml</dc:format><dc:type
         rdf:resource="http://purl.org/dc/dcmitype/StillImage" /><dc:title></dc:title></cc:Work></rdf:RDF></metadata><defs
   id="defs8" /><sodipodi:namedview
   pagecolor="#ffffff"
   bordercolor="#666666"
   borderopacity="1"
   objecttolerance="10"
   gridtolerance="10"
   guidetolerance="10"
   inkscape:pageopacity="1"
   inkscape:pageshadow="2"
   inkscape:window-width="3000"
   inkscape:window-height="1859"
   id="namedview6"
   showgrid="false"
   inkscape:zoom="50.568849"
   inkscape:cx="7.8764189"
   inkscape:cy="16.634495"
   inkscape:window-x="-14"
   inkscape:window-y="-14"
   inkscape:window-maximized="1"
   inkscape:current-layer="layer2" />
<style
   type="text/css"
   id="style2">
	.st0{fill:#800000;}
</style>

<g
   inkscape:groupmode="layer"
   id="layer2"
   inkscape:label="background"><rect
     style="fill:#ffffff;stroke-width:0.98758012"
     id="rect46"
     width="39.787338"
     height="28.238729"
     x="1.1103897"
     y="2.5265462" /><rect
     style="fill:#ffffff;stroke-width:0.98954988"
     id="rect48"
     width="38.185562"
     height="7.9891081"
     x="1.8390768"
     y="28.278975" /><rect
     style="fill:#ffffff"
     id="rect50"
     width="31.402731"
     height="8.8592091"
     x="5.3788052"
     y="34.626755" /><rect
     style="fill:#ffffff"
     id="rect52"
     width="19.942009"
     height="7.3832111"
     x="10.511521"
     y="40.433483" /><rect
     style="fill:#ffffff"
     id="rect54"
     width="7.8309078"
     height="4.1923041"
     x="18.430319"
     y="46.155594" /></g><g
   inkscape:groupmode="layer"
   id="layer1"
   inkscape:label="Layer 1"
   style="display:inline"><path
     inkscape:connector-curvature="0"
     id="Shape"
     class="st0"
     d="M 41.711521,30.333483 V 0.8334835 c -23.6,-2.3 -41.49999993,0 -41.49999993,0 V 30.333483 c 1.90000003,20 20.59999993,22.3 20.69999993,22.3 3.4,-0.6 19.1,-3.7 20.8,-22.3 z m -34.7999999,7.4 c 0.4,0.3 0.8,0.4 1.2,0.6 0.5,1.3 0,2.6 -0.3,2.1 -0.4,-1 -0.7,-1.8 -0.9,-2.7 z m 0,-14.5 v 0 c 0,0 -2.7,1.6 -4.4,0.8 1.2,-0.7 5.6,-3.4 6.8,-4.2 0.5999995,0.1 0.7999999,-0.1 0.9999999,-0.2 -0.5000004,0 -1.9999999,0.3 -1.1999999,-1.1 0.3,1.2 2.3999999,0.1 3.1999999,-0.1 2.1,-0.499999 2.1,1.8 1.9,2.7 0,0.4 0.6,0.6 1,0.6 -0.6,1.5 -1.7,0.1 -1.7,0.6 0,0.2 -0.7,0.4 -0.7,1 0,0.8 0.3,0.4 0.3,1 0,0.6 -0.2,0.1 -0.2,0.8 0.1,1 1.8,-0.1 2.5,0.1 0.4,0.1 0.6,0.5 0.9,0.4 0.1,-0.1 0,-0.5 0,-0.6 0,-0.3 -0.6,-0.4 -0.9,-0.8 -0.2,-0.4 0.3,-1.5 0.6,-1.9 0.4,1.9 2.2,1.3 2.4,3.3 0.2,0.6 -0.6,1.2 0,2.1 -0.5,0.5 -1,2.6 0,3.6 -0.2,0.5 -0.4,1.5 0.5,2.2 -0.3,0.6 -0.2,1.4 0,2.2 -0.6,0 -0.4,-3 -3.7,-3.2 -0.1,0 -0.1,0.4 0,0.5 0.4,0.7 0.9,0.6 0.8,2.3 0,0.6 -0.4,-0.1 -0.6,-0.2 -0.4,-0.4 -0.7,-0.4 -0.9,-1.5 -1.3,1.1 -1.2,2.3 -1.1,2.9 0,0 -0.3,-0.8 -0.6,-1.6 0,0 1.3,-1.7 1.6,-2.1 2.8,-5 -1.8,1.6 -1.8,1.6 -0.2,-0.6 -0.5,-1.1 -0.6,-1.2 0,0 0.8,-0.9 1.1,-1.6 2.1,-4.4 -1.3,1.5 -1.4,1.4 -0.3,-0.2 -0.5,-0.5 -0.6,-0.4 0,0.7 -0.2,0.6 -0.1,1.3 -0.4,0.5 -1.1000004,1.2 -1.6999999,1.6 0,0 -0.1,-1.2 -0.1,-1.3 0.3,-0.3 1.2999999,-1.5 1.4999999,-1.8 3.5,-5.5 -1.6999999,1.3 -1.6999999,1.2 0,-0.2 -0.3,-0.6 -0.6,-0.9 0,0 1.1,-1.6 1.3999995,-2.1 2.1000004,-4.4 -1.6999995,1.9 -1.6999995,1.9 -0.1,-0.1 -0.1,-0.1 -0.2,-0.1 -0.1,0 0.1,-1.2 0.3,-2 0.3,-1.5 -0.5,-0.3 -0.7,2 -0.2,0 -0.7,0.1 -0.9,0.2 0.1,0.6 0.3,0.1 0.5,0.7 0.3,0.7 -0.4,1.9 0.2,2.7 0.2,0.3 0.3,0.3 0.2,0.5 -0.4,0 -0.6,0 -0.9,0.3 -0.4,-2.2 -0.4,-3.2 -0.3,-5.5 0,-1 0.4,-2.6 0.2,-2.6 -0.1,0 -2.4,5.9 -3,7.1 -1,-0.3 0.6,-5.5 2.6,-7.9 0.2,-0.8 -1.1,0.8 -1.8,1.4 -0.7,0.6 -1.6,1.3 -2.5,1.1 1.2,-1.3 3.9,-3.7 4.3,-4.3 0.3,-0.5 -1.9,1.6 -4.1,0.8 1.5,-0.7 4.9,-2.5 4.9,-3.7 z m 4.0999999,11.2 c 0,0.6 0,1 0.1,1.5 0.3,0.8 0.1,0.6 -0.2,0.3 -0.3,-0.3 -0.6,-0.6 -0.7,-0.9 0,-0.3 0.2,-0.3 0.8,-0.9 z m 5.5,-13.4 c -0.3,-0.6 0.4,-1.1 0.4,-1.1 0,1.6 2,0.5 3.1,1 0.3,0.1 0.4,0.3 0.6,0.6 -1.3,-0.8 -3.4,0.8 -4.1,-0.5 z M 4.6115211,8.3334837 c -1.8,0 -1.7,-2.7000002 0,-2.7000002 1.8,0 1.8,2.7000002 0,2.7000002 z m 0,5.3999993 c -1.8,0 -1.8,-2.7 0,-2.7 1.8,0 1.8,2.7 0,2.7 z m 1.8,-7.3999995 h 1.6 v 1.6000002 h -1.6 z m 0,5.4999995 h 1.6 v 1.6 h -1.6 z m 14.2999999,4.2 c 0,0 -1.7,-0.9 -3.6,-1 -1.9,-0.1 -5.6,1.400001 -8.4999999,1.2 V 3.3334835 c 0,0 3.2999999,0.5 4.6999999,-0.1 4.6,-1.8 7.5,0.2 7.5,0.2 z m 3.2,2.000001 c 0.1,0.499999 -0.4,0.599999 -0.4,0.599999 0.7,0.2 1,-0.2 1.1,-0.499999 0.3,1.099999 -0.9,1.099999 -1.2,1.199999 0,0 0.6,0.2 0.6,0.6 0.1,0.9 0.7,0.9 0.8,0.8 0,0.1 -0.2,0.7 -0.9,0.2 -0.1,0.1 0.2,0.3 0.2,0.7 0.1,0.6 0,1.1 0.7,1.5 -0.4,0.3 -0.9,-0.6 -1,-0.4 -0.1,0.2 0.6,0.4 -0.1,2.1 -0.3,-0.2 -0.1,-0.1 -0.5,-0.6 -0.3,-0.2 -0.4,-0.3 -0.1,0.1 0.4,0.5 0.5,1.7 0.4,2 -0.3,-0.1 -0.2,-0.4 -0.6,-0.8 0,0.1 0.1,0.9 0.6,1.3 0.7,0.6 1,1.4 1,1.6 0,0.6 -0.1,1.3 -0.2,2.1 -0.3,0 -0.6,-1 -0.7,-1 -0.1,0 0,1 0.7,1.6 0.3,0.9 0.2,1.4 0.1,1.4 -0.1,0 -0.5,-0.9 -0.6,-0.7 0.9,2.3 0.3,3.1 0,3.9 -0.2,-0.7 -0.3,-1.3 -0.5,-2.1 -0.5,0.4 -0.6,1 -1.2,1.5 0,-1 -0.6,-3.2 -1,-3.8 0,0 -0.8,2 -1.1,3 -0.5,1.2 -0.5,2.7 0,3.9 -1.1,-1.6 -1.2,-4.6 -0.3,-5 0.1,-0.2 0,-0.9 -0.3,-0.8 0,0.3 0,0.6 -0.3,1 -0.7,-0.2 -0.4,-1.1 -0.3,-1.4 1,-1.1 0.4,-1.4 0.3,-1.4 -0.1,0.3 -0.2,0.6 -0.5,0.7 -0.6,-1.1 -0.2,-2.8 1,-4 0,-0.5 -0.5,0.4 -0.9,0.3 -0.1,-0.9 0.2,-2.4 1.9,-2.5 -0.4,-0.3 -0.6,-0.3 -0.6,-0.6 0.5,-0.1 2.1,-0.2 1.8,-1.4 -0.1,0.1 -0.2,0.4 -0.6,0.6 -0.3,0.2 -0.6,0.2 -0.7,0 0.7,-0.2 0.5,-1.1 -0.5,-0.9 -0.3,0.1 -0.7,-0.2 -0.7,-0.6 0.2,0.2 0.6,0 0.9,-0.1 1.1,-0.7 1.7,0.3 1.9,0.6 0,0 0.5,-1 -1.1,-1.3 -0.1,-0.4 -0.5,-1 -1.5,-0.9 -0.3,-1.2 -1.4,-0.6 -1.3,0 -1.1,-0.8 0,-1.8 0.5,-2 0.3,0 0.2,1 0.8,0.8 0.1,0 -0.4,-0.7 -0.2,-0.999999 0.5,-0.3 0.5,0.399999 0.7,0.1 0.1,-0.4 0.6,-0.6 1,-0.7 1,-0.3 1.8,0.9 2.9,0.3 z m 10,-1.800001 c -2.4,0.1 -7.4,-1.2 -8.7,-1.2 -2.7,0 -3.9,1 -3.9,1 0,0 0,-11.9999995 0,-12.4999995 0,0 3.5,-1.6 6,-0.7 3.1,1.1 6.7,0.6 6.7,0.6 z m 3.3,-4.9 c 1.3,-0.2 1.6,1.4 1.6,1.4 v 0 c -0.3,-0.3 -1,-0.4 -1.4,-0.1 -1.5,1 -2.8,1 -2.8,1 v -2.4 c -0.2,-0.1 0.1,0.4 2.6,0.1 z m 1.6,-3.3999993 c 0,-0.1 0,-0.2 0,-0.3 0,-0.2 -0.7,-0.4000002 -1.2,-0.2 -0.7,0.3 -2.4,1.3 -3,1.1 V 6.1334835 c 1.6,0.7 2.2,0 2.7,0 1.5,0 1.6,1.4000002 1.6,1.4000002 -0.2,0.3 -0.2,0.4 -0.1,0.4 z m -1.8,25.0999993 c -0.5,0.1 -1.7,0.6 -1.9,1.1 0.1,-2.6 -0.7,-5.1 -1,-5.7 -0.5,-1.2 0.2,2.8 0.3,3.7 0,0 -4.3,-5.5 -1.7,-1.2 0.7,1.1 1.7,1.8 1.7,1.8 0,0.8 0,1.3 -0.2,1.7 -0.3,0.2 -5.8,-7.4 -2.8,-2.1 0.4,0.6 2.6,2.6 2.6,2.7 -0.1,0.3 -0.4,0.7 -0.7,1.1 0,0 -1.3,-1 -1.3,-1 -0.1,-0.6 -0.1,-1.1 -0.8,-0.7 0,0 -2.8,-3.2 -1.5,-1 0.6,1 0.9,1.1 1.1,1.2 0,0 -0.4,0.6 -0.6,1.2 0,0.2 -2.4,-2.6 -1.5,-0.8 0.3,0.6 1.3,1.2 1.3,1.2 -0.1,0.4 -0.2,0.7 -0.3,1 -0.1,0.3 -2.2,1.9 -2.2,1.9 0,0 0.4,-1.3 1.3,-1.9 0.5,-0.4 0.5,-0.3 0.8,-0.5 0,-0.2 -0.2,-0.5 -0.4,-0.6 -0.3,-0.1 -1.2,0.1 -1.2,0.1 0.1,-0.5 -0.3,-1.5 -0.3,-2.7 -0.4,0 -1,0.6 -1.1,0.9 -0.1,1.9 -0.5,1.3 -0.9,2.7 -0.4,-0.6 0,-1.4 -0.4,-1.9 -0.6,-0.7 -0.6,-1.2 -0.7,-2.2 0.1,-0.1 0.7,-0.7 0.2,-2.1 -0.1,-2.1 0.9,-2.9 -0.8,-4.4 0.1,0 0.2,-1.1 0.2,-1.1 1.2,0.6 1,-0.8 1.5,-1.1 0.8,-0.5 0.6,-0.9 0.3,-1.5 2.2,0.6 -0.1,2.1 0.9,2.2 0.7,0 1.2,-0.1 1.5,-0.6 0.3,-0.5 0,-0.8 0.9,-1.7 0.1,-0.1 0.3,-0.6 -0.4,-0.8 -0.2,0 0,-0.6 0,-0.6 -0.6,0.5 -0.8,1.2 -1.7,0.7 -0.5,-0.2 -0.8,0 -1,0.1 0,0 -0.1,-0.4 0.3,-0.6 1.1,-0.4 1.3,-0.8 1.2,-1 -0.1,-0.6 -0.2,0 -0.1,-0.6 0,-0.2 0.3,-0.6 0.5,-0.8 0.7,-0.799999 1.2,-0.6 1.4,-0.5 0.4,-0.299999 0.5,-0.299999 0.9,-0.499999 0.6,-0.3 2.1,0.2 2.8,0.599999 0.4,0.2 0.8,0.3 1.3,0.2 0,0.2 -0.2,0.4 -0.3,0.4 -0.2,0.1 -0.6,0 -0.5,0.2 0,0.1 0.4,0.1 0.6,0.2 1.1,0.3 2.7,1.4 1.7,1.1 -0.1,0 0.7,0.6 1.3,1.5 l 2.2,2.2 c -0.1,0.1 -0.9,0 -3.4,-2.3 -0.4,0.3 3,2.8 4.4,5.5 -0.1,0.1 -1.8,-0.6 -2.5,-1.2 -1,-1 -2.1,-3.5 -2.5,-3.2 0,0 1.8,2.9 2.8,4.7 0.5,0.9 0.9,2.1 0.9,3.1 0.1,4.7 -0.6,4.3 -0.6,4.3 -1.1,-3.7 -1.6,-7.9 -3.2,-9.9 -0.8,-0.6 1.5,3.7 1.6,7.5 z m -4.8,4.2 c -0.5,0.4 -0.8,0.6 -0.7,0.4 0.1,-0.2 0.2,-0.5 0.3,-0.6 z m -0.3,-0.6 c 0.1,-0.4 0.1,-0.6 0.2,-1 0,-0.1 0,-0.1 0,-0.3 0,0 1.1,0.9 1.1,0.9 -0.3,0.3 -0.5,0.5 -0.7,0.7 -0.3,-0.1 -0.7,-0.2 -0.6,-0.3 z m 3.4,1.2 c -1.5,1.5 -3.7,0.9 -5.5,1.7 -1.6,0.6 -2.8,2.1 -4.4,2.4 -0.5,0.1 -0.6,0.4 -0.3,0.4 0.2,0 1.2,1.1 2.8,0.2 0.6,-0.3 2.2,-1.2 2.5,-1.3 -0.9,0.9 -1.4,1.7 -2.2,2.1 -0.5,0.3 -2.5,1 -4.5,0.6 -0.9,-0.2 -1.6,0.6 -1.4,0.6 0.5,-0.1 1,0 1.3,0.4 0.6,0.5 1.4,1.1 2.2,0.2 0.2,-0.3 1.4,-0.9 2.5,0.2 -1.1,0 -1.1,2 -3.3,1.8 -0.8,0 -2.6,-1.9 -3.1,-1.3 -0.9,1 2,2 0.7,3.3 -1.1,1.1 -2.5,-0.9 -2.5,-0.9 0.7,0.3 2,0.5 1.4,-0.6 -0.2,-0.5 -0.6,-0.9 -0.6,-1.7 -0.1,-0.4 -2.7,3.3 -4.4,1.6 -0.7,-0.6 -2,-2.1 -3.3,-2.7 3.3,-0.3 3.7,1 3.9,1.2 1.1,1.4 2,0 2.2,-0.3 0.3,-0.4 0.8,-0.9 0.6,-1 -1.2,-0.6 -2.7,-0.7 -3.8,-0.2 2.3,-3.2 4.1,-0.2 4.1,-0.2 0.2,0.1 0,-1.9 -2.3,-2 -1.4,-0.1 -2.7,1.2 -3.6,1.2 -0.8,0 -3.2,-1.6 -3.8,-3.1 1.4,1.1 3.2,1.7 4.3,1 2.1,-1.2 4.7,0.6 4.9,0.4 -0.6,-0.5 -1.9,-2.3 -5.5,-1.2 -1.4,0.8 -2,-0.6 -2.8,-0.6 1.5,-1.3 2.5,-0.6 3,-0.6 0.1,0 -0.6,-0.6 -1.1,-0.6 -3.9999999,-0.4 -6.4999999,-1.5 -6.4999999,-1.5 0,0 0.3,-0.8 2,-0.2 0,0 -1.5,-0.9 -1.5,-2.2 0,-0.7 0.4,-1.6 -0.1,-2.2 2.3,-0.1 0.7,3.1 2.3,4 0,0 -0.5,-0.8 0.1999995,-1.4 0.3000004,1 1.1000004,1.4 1.7000004,1.6 0.1,-0.1 0.3,-0.4 0.3,-0.4 -0.6,-1 -0.7,-2.2 -0.5,-3.5 v 0 c 0.1,0 0.4,0.5 0.5,0.8 0.3,0.7 0.3,1.7 1,2.6 0.4,0.5 0.6,1 0.9,1.2 0.1,-0.3 0,-0.9 0,-1.1 -0.1,-0.6 -0.4,-1.5 0.5,-2.3 0.5,1.2 1,0.9 1.1,1.5 0.1,0.8 0.1,0.7 0,1.4 0,0.9 0.9,1.1 1.6,1.7 1.7,0.9 2.7,1.4 3.4,2.5 0.4,-1.9 -4.8,-2.3 -4.2,-6 -0.1,-1.5 0.2,-1.6 -0.9,-2.5 2.1,0 3.2,3.5 3.3,4.1 0.2,1.1 0.9,1.2 1.8,2.7 0.1,0 -1.7,-4 0.5,-7.4 0,0 0.7,1.8 0.4,3 -0.2,0.7 0,1.5 0,1.9 0,0.4 -0.1,-1.7 1.5,-2.7 0.1,0.8 0.9,2 0.1,3.3 -0.9,1.6 -0.9,1 -1,3 0.1,0 0.3,-1.3 0.9,-2.1 1.3,-1.6 0.4,-2.4 1.6,-3.8 0.1,0.7 0.3,0.4 0.4,1 0.2,1.4 -1.3,2.8 -1,2.8 0.4,0 1,-0.4 1.1,-1.4 0,0 0.5,1 0,1.3 -0.9,0.6 -1.1,1.2 -0.9,1.9 0.7,-0.8 1.7,-1.7 1.5,-2.9 0.1,-0.7 0.9,-1 1,-2.7 0,-0.3 0.3,-0.6 0.6,-0.8 -0.1,0.9 0.6,1.9 -0.2,3 0.2,0.1 0.9,-0.9 1.9,-0.6 -2.1,0.4 -1.5,2.6 -3,3.6 -0.5,0.3 -0.4,0.6 -0.6,0.7 1.4,-0.1 2.5,-1.7 2.7,-1.9 1.4,-1 1.7,-1.1 2.3,-2.7 0.2,-0.6 0,-0.8 0.8,-1.7 0.3,0.8 -0.1,2.4 -0.3,2.8 -0.3,0.7 -1.1,1.4 -1,1.4 3.8,-1.7 3.7,-2.8 4.6,-4 0.3,-0.5 1.6,-1.2 2.1,-1.3 -0.1,0.2 -0.6,0.7 -0.7,1.1 0,0.8 -0.3,1.3 -0.7,2 0.2,0.3 0.7,-0.6 1.1,-0.1 0.2,0.4 -0.1,1.1 -0.6,1.5 z m 0.7,-0.2 c -0.2,1.1 -0.6,2.1 -1.3,3.1 -0.5,0.7 -0.6,-0.6 -0.3,-1.9 0.6,-0.3 1.1,-0.7 1.6,-1.2 z m -2.9,-27.9999993 c -0.1,0 -0.3,0 -0.4,0 -0.1,0 -0.2,0.1999998 0,0.1999998 0.1,0 0.3,0 0.4,0 0.1,0 0.1,-0.1999998 0,-0.1999998 z m -0.4,0.4999993 c 0.1,0 0.3,0 0.4,0 0.1,0 0.1,-0.1999995 0,-0.1999995 -0.1,0 -0.3,0 -0.4,0 -0.1,0 -0.2,0.1999995 0,0.1999995 z m 0,2.4 c -0.1,-0.1 -0.3,-0.3 -0.5,-0.4 -0.1,0.1 -0.4,0.3 -0.5,0.4 -0.1,-0.1 -0.3,-0.3 -0.5,-0.5 -0.1,0.1 -0.6,0.5 -0.7,0.6 0.2,0 0.6,0.1 0.6,0.3 0,0.2 0,1.3 0,1.5 0.1,0 0.3,0 0.6,0 0,-0.2 0,-1.5 0,-1.7 0.1,0 0.1,-0.1 0.2,-0.1 0.1,0 0.3,0.4 0.5,0.4 0,-0.1 0.3,-0.4 0.3,-0.5 0.2,0 0,-0.1 0,0 z m -0.7,-1.9 c 0.1,-0.2 0.3,-0.6 0.3,-0.9999993 0,-0.4 -0.2,-1 -0.8,-1.1 -0.7,0.2 -1.1,0.8 -1.1,1.4999993 0,0.4 0.3,1.2 1,1.2 0.2,-0.2 0.3,-0.5 0.6,-0.6 z m -0.4,0.1 c -0.1,0 -0.6,-0.4 -0.7,-0.7 -0.1,-0.3999993 -0.1,-0.7999993 0.3,-1.0999993 0.3,0.1 0.7,0.4 0.7,0.7 -0.1,0.4999993 -0.2,0.8999993 -0.3,1.0999993 z m -0.1,-2.8999993 0.5,-0.6000002 c 0,0 -0.2,-0.2 -0.4,-0.3 0,-0.1 0,-1.2 0,-1.3 -0.4,-0.3 -0.6,-0.4 -0.8,-0.4 -0.3,0 -0.6,0.5 -0.7,0.6 -0.1,0.1 0,0.2 0,0.3 0,0 0.1,0.1 0.2,0.1 0,0 0,0 0,0 -0.1,0.1 -0.4,0.5 -0.4,0.8 0,0.3 0.3,0.7000002 0.5,0.8000002 0.2,-0.1 0.5,-0.4 0.8,-0.5000002 0.1,0.3000002 0.2,0.4000002 0.3,0.5000002 z m -0.3,-1.3000002 c -0.2,-0.1 -0.7,-0.3 -0.9,-0.5 0,0 0,0 0,-0.1 0.1,-0.2 0.2,-0.3 0.3,-0.3 0.1,0 0.6,0.3 0.6,0.4 0,0.1 0,0.3 0,0.5 z m 0,0.8 c -0.1,0 -0.2,0 -0.4,0.1000002 -0.1,-0.1000002 -0.5,-0.6000002 -0.2,-1.0000002 0,0 -0.1,0 -0.1,0 0.2,0.1 0.5,0.3 0.7,0.3 0,0.2 0,0.4 0,0.4 0,0.1 0,0.1 0,0.2 z m -1.4,-2.3 c -0.1,0 -0.9,0 -0.9,0 0,-0.2 -0.1,-0.4 0,-0.7 0,-0.1 0,-0.2 -0.1,0 0,0.1 -0.5,0.7 -0.9,0.9 -0.2,0.1 0.3,0.3 0.2,0.3 0,0.6 0.1,1.3 0.2,1.7 0.1,0.2000002 0.3,0.5000002 0.5,0.4000002 0.1,0 0.3,-0.5000002 0.4,-0.6000002 0.1,-0.1 0,-0.3 -0.1,-0.1 -0.1,0.1 -0.2,0 -0.2,-0.1 0,-0.1 -0.1,-1.3 -0.1,-1.3 0,0 1,-0.1 1.1,-0.1 0,-0.2 0,-0.4 -0.1,-0.4 z m -2.7,2.2 0.4,-0.5 c -0.3,0 -0.4,-0.1 -0.6,-0.3 v -1.3 l -0.4,-0.4 h -0.1 l -0.6,0.6 c 0,0.1 0.1,0.1 0.2,0 l 0.5,0.3 v 1.2 c 0,0.1 0.1,0.3 0.3,0.5 z m -0.3,-2.8 0.2,-0.2 v -0.3 l -0.3,-0.3 -0.2,0.2 v 0.4 l 0.2,0.2 z m -1,-0.4 c -0.2,0 -0.7,0 -0.9,0 -0.2,0 -0.2,0.1 0,0.1 0.2,0 0.2,0 0.3,0.3 0.1,0.2 -0.3,1.2 -0.4,1.5 -0.2,-0.2 -0.6,-1.1 -0.6,-1.2 0,-0.1 0.2,-0.2 0.3,-0.2 0.1,0 0.1,-0.1 0,-0.2 -0.3,0 -1.5,-0.1 -1.7,-0.2 -0.1,0 -0.2,0.1 0,0.1 0.2,0 0.4,0 0.6,0.2 0.2,0.3 1,1.9 1.1,2.6 0.1,-0.1 0.8,-2.3 0.9,-2.5 0.1,-0.2 0.2,-0.4 0.4,-0.5 0.2,0.1 0.2,0 0,0 z m -3.5,5.2000002 c 0,0.8999993 0.4,0.9999993 0.8,1.1999993 0.4,0.2 1,0.2 1.5,0 0.2,0 0.3,0 0.3,0.1 0,0.1 0.1,0.1 0.1,0 0,-0.1 0,-0.7999993 0,-0.8999993 0,-0.1 -0.1,-0.1 -0.1,0 0,0.1 0,0.1999998 -0.1,0.2999998 -0.3,0.4999995 -1.1,0.4999995 -1.6,-0.1 -0.1,-0.1999998 -0.3,-0.4999998 -0.1,-0.5999998 0.2,0 0.7,0 1.1,0.1 0.2,0 0.7,0 0.8,0.1 0,0 0.1,0.1 0.1,0 0,-0.1 0,-0.5 0,-0.6 0,-0.1 -0.1,0 -0.1,0 0,0 -0.6,0.1 -0.8,0.2 -0.2,0 -0.9,0.1 -1,0 -0.2,0 -0.1,-0.4 0,-0.6 0.5,-0.6 1.4,-0.6 1.7,0 0.1,0.2 0.1,0.2 0.1,0.4 0,0.1 0.1,0.1 0.1,0 0,-0.1 0,-1 0,-1.1 0,-0.1 -0.1,-0.1 -0.1,0 0,0 -0.1,0.1 -0.3,0 -0.3,-0.1 -1.1,0 -1.5,0.2 -0.4,0.3 -0.9,0.7 -0.9,1.3 z m 0.2,1.4999993 c 0,0.3 0.1,2.4 0.1,2.8 0,0.2 0.2,0.4 0.4,0.5 0.1,-0.1 0.3,-0.5 0.5,-0.6 0.1,-0.1 0,-0.1 0,-0.1 -0.2,0.1 -0.3,0 -0.4,-0.2 0,-0.2 0,-2.1 0,-2.3 -0.1,0 -0.5,0 -0.6,-0.1 z m 1.8,1.8 c -0.1,0.1 -0.4,0.5 -0.4,0.7 0,0.3 0.1,0.5 0.3,0.7 0.3,-0.2 0.4,-0.5 0.9,-0.6 0,0.2 0.2,0.2 0.4,0.4 0.1,-0.1 0.5,-0.6 0.6,-0.6 0.1,-0.1 0,-0.1 -0.1,-0.1 -0.1,0.1 -0.2,0 -0.4,-0.2 0,-0.1 0,-1.1 0,-1.1 -0.2,-0.2 -0.4,-0.5 -0.6,-0.5 -0.3,0 -0.7,0.6 -0.8,0.7 -0.2,0.1 -0.1,0.5 0.1,0.6 0,0 0,0 0,0 z m 0.2,0.2 c 0.2,0.1 0.3,0 0.5,0 0,0.2 0,0.3 0,0.4 -0.1,0.1 -0.3,0.1 -0.4,0.2 -0.2,-0.1 -0.3,-0.2 -0.1,-0.6 z m -0.2,-0.8 c 0.1,-0.2 0.2,-0.2 0.3,-0.2 0.1,0 0.4,0.2 0.4,0.4 0,0.1 0,0.3 0,0.5 -0.2,0 -0.4,0 -0.6,-0.2 -0.1,0 -0.1,-0.4 -0.1,-0.5 z m 1.9,-0.3 c -0.2,0.1 0.3,0.3 0.2,0.3 0,0.6 -0.1,1.4 0.1,1.7 0.1,0.2 0.4,0.3 0.6,0.2 0.2,0 0.4,-0.4 0.5,-0.5 0.1,-0.1 0,-0.2 -0.1,-0.1 -0.1,0.1 -0.4,0 -0.4,0 0,-0.1 0,-1.2 0,-1.3 0,0 0.3,0 0.4,0 0.1,0 0.1,-0.2 0,-0.2 -0.1,0 -0.4,0 -0.4,-0.1 0,-0.1 0,-0.5 0.1,-0.6 0.1,-0.1 0,-0.2 -0.1,0 -0.1,0.2 -0.5,0.4 -0.9,0.6 z m 0.1,-2.3999993 c 0,0.5 -0.2,0.9999993 -0.5,1.2999993 0.5,-0.1 0.6,-0.4 0.8,-0.7999993 0.1,0.1999998 0.4,0.4999993 0.6,0.5999993 0.1,-0.1 0.6,-0.5999993 0.6,-0.5999993 -0.3,-0.1 -0.8,-0.4 -1,-0.7 -0.1,-0.2 -0.1,-0.3 0,-0.5 0.1,0.1 0.8,0.5 1.1,-0.1 -0.3,-0.1 -0.6,-0.3 -0.7,-0.5 -0.1,0.1 -0.4,0.4 -0.6,0.5 0,-0.2 -0.3,-0.4 -0.6,-0.4 -0.1,0.1 -0.6,0.5 -0.8,0.6 -0.1,0 0,0.2 0,0.1 0.1,0 0.3,-0.2 0.5,-0.3 0.3,0.1 0.6,0.3 0.6,0.8 z m 2.4,0.1 c 0,-0.3 0.3,-0.4 0.4,-0.5 0.1,0.1 0.3,0.3 0.5,0.3 0.2,0 0.4,-0.1 0.5,-0.2 -0.2,-0.1 -0.6,-0.6 -0.6,-0.6 -0.3,0.1 -1.2,0.6 -1.3,1.1 -0.1,0.6999993 0.1,0.8999993 0.5,1.2999993 0.2,0.2 0.5,0.2 0.6,0.2 0.1,-0.1 0.7,-0.6 0.8,-0.7 0,0 0,-0.1 -0.1,0 0,0 0,0.1 -0.1,0.1 -0.1,0 -0.5,0.1 -0.7,0 -0.3,-0.3 -0.6,-0.5999993 -0.5,-0.9999993 z m -0.5,2.2999993 c -0.1,0.1 -0.3,0.3 -0.6,0.5 0.2,0 0.3,0 0.4,0.2 0.1,0.1 0,0.8 0,1.1 0,0.2 0.2,0.3 0.4,0.5 0.2,0 0.7,-0.3 1,-0.4 0,0.2 0.2,0.5 0.4,0.5 0.1,-0.1 0.2,-0.2 0.4,-0.3 -0.1,-0.1 -0.1,-0.1 -0.2,-0.3 0,-0.2 0,-0.9 0,-1.2 -0.1,-0.2 -0.3,-0.4 -0.5,-0.6 -0.1,0.1 -0.3,0.3 -0.6,0.6 0.2,0 0.5,0 0.5,0.2 0,0.2 0,0.6 0,0.9 0,0.3 -0.9,0.2 -0.9,0 0,-0.2 0,-0.8 0,-1.1 0.1,-0.3 0,-0.4 -0.3,-0.6 z m -5.4,7.4 v 0 c -0.5,-0.1 -0.8,-0.4 -1.3,-0.6 -0.6,-0.199999 -1.2,0.2 -1.2,0.3 0,0.2 0.2,0.2 0.6,0 -0.4,0.5 0,0.8 0,0.8 -0.1,0 -0.4,-0.1 -0.6,-0.1 0,0.1 0.2,0.2 0.3,0.3 1,0.2 1.5,-0.5 2.2,-0.7 z m -1.3,0.4 c 0,0 0.2,-0.2 0.2,-0.4 0,-0.2 -0.2,-0.4 -0.2,-0.4 0.2,0 0.6,0.3 0.8,0.4 z m -4.5,-6.1 0.2,-0.3 c -0.3,0 -0.1,0 -0.3,-0.2 v -1 l -0.3,-0.5 h -0.1 l -0.5,0.5 c -0.1,0.1 0,0.2 0.1,0 l 0.4,0.2 v 1.1 c 0,0.1 0.1,0.2 0.3,0.4 z m 0.1,-3.6999993 c 0.2,0.4999993 0.6,0.6999993 0.9,0.6999993 0.1,-0.2 0.3,-0.4999995 0.4,-0.5999993 0.1,-0.2 0,-0.3 -0.1,-0.1 -0.1,0.1999998 -0.5,0 -0.6,-0.1 -0.2,-0.2 -0.3,-0.7 -0.2,-0.8 0.1,-0.2 0.4,-0.1 0.7,-0.1 0.2,0 0.2,-0.2 0.3,-0.3 -0.1,0 -0.2,-0.1 -0.4,-0.2 -0.2,0.1 -0.5,0.4 -0.6,0.5 -0.2,0.1 -0.5,0.5 -0.4,1 z m 0.8,2.7999993 c -0.2,0.2 -0.3,0.4 -0.3,0.7 0,0.3 0.1,0.5 0.4,0.6 0.2,-0.2 0.6,-0.4 0.8,-0.5 0.1,0.2 0.4,0.3 0.5,0.4 0.1,-0.1 0.4,-0.4 0.5,-0.4 0.1,-0.1 0,-0.2 -0.1,-0.1 0,0.1 -0.3,0 -0.3,-0.1 0,-0.1 -0.1,-1.3 0,-1.3 -0.2,-0.2 -0.5,-0.6 -0.6,-0.6 -0.3,0 -0.7,0.5 -0.8,0.6 -0.1,0.1 -0.2,0.7 -0.1,0.7 0,0 0,0 0,0 z m 0.8,0.1 c -0.2,0 -0.4,0 -0.6,-0.3 0,0 -0.1,-0.3 0,-0.4 0.1,-0.2 0.1,-0.2 0.2,-0.2 0.1,0 0.5,0.3 0.5,0.4 -0.1,0.2 -0.1,0.4 -0.1,0.5 z m -0.6,0.1 c 0.2,0.1 0.3,0.1 0.6,0.1 0,0.1 0,0.3 0,0.3 0,0 0,0.1 0,0.1 -0.1,0 -0.3,0.1 -0.4,0.1 -0.2,0 -0.6,-0.3 -0.2,-0.6 z m 1.6,-2.2 0.2,-0.3 c -0.3,0 -0.3,0 -0.4,-0.1 V 8.7334837 l -0.2,-0.3 h -0.1 l -0.6,0.5 c -0.1,0.1 0,0.2 0.1,0 l 0.3,0.2 v 1.0999993 c 0,0.1 0.1,0.2 0.3,0.4 z m -0.4,-4.2999995 c -0.1,0 -0.3,0.2 0.4,0.3 0.1,-0.1 0.2,-0.3 -0.4,-0.3 z m 0,-0.4 c -0.1,0 -0.3,0.3 0.4,0.3 0.1,0 0.1,-0.3 -0.4,-0.3 z m 0.1,1.9000002 -0.2,-0.3000002 -0.3,0.2000002 v 0.3 l 0.2,0.2 h 0.2 l 0.2,-0.2 v -0.2 z m -0.5,-2.6000002 c -0.2,-0.1 -0.4,-0.5 -0.8,-0.5 -0.4,0 -1,0.4 -1.1,0.6 -0.2,0.3 0,0.6 0.3,0.9 -0.2,0.1 -0.5,0.4 -0.7,0.6 0.1,0.1 0.6,0.4 0.9,0.3 0.5,0 0.8,-0.2 1.1,-0.5 0.5,-0.4 0.3,-0.7 -0.2,-1 0,0 -0.1,0 -0.1,0 0.3,-0.1 0.5,-0.3 0.6,-0.4 z m -1.2,1 c 0.1,0.1 0.3,0.1 0.5,0.2 0.2,0.1 0.1,0.4 -0.1,0.5 -0.3,0.1 -0.8,-0.2 -0.9,-0.4 0.1,-0.1 0.3,-0.2 0.5,-0.3 z m 0.5,-0.7 c 0,0 -0.1,0.1 -0.3,0.2 -0.1,0 -0.1,0 -0.2,0 -0.2,0 -0.3,-0.2 -0.5,-0.4 -0.1,-0.1 0.2,-0.3 0.3,-0.3 0.2,0.2 0.5,0.3 0.7,0.5 z m -1.9,1 c -0.7,0.2 -1,-0.4 -1.1,-0.5 0.3,-0.3 0.7,-0.7 1,-1 -0.2,-0.2 -0.3,-0.5 -0.6,-0.5 -0.3,0 -1,0.3 -1.1,1.2 0,0.9 0.7,1.3 1.4,1.3 0.2,0 0.5,-0.3 0.6,-0.3 0.2,-0.1 0.1,-0.3 -0.2,-0.2 z m -1.1,-0.7 c -0.2,-0.6 -0.1,-0.7 0.2,-1 0.1,0.2 0.3,0.3 0.4,0.4 -0.2,0.2 -0.5,0.6 -0.6,0.6 z m -0.8,-0.5 c 0.2,-0.1 0,-0.1 0,0 -0.2,-0.1 -0.3,-0.3 -0.4,-0.5 -0.1,0.1 -0.4,0.2 -0.5,0.3 -0.1,-0.1 -0.3,-0.1 -0.5,-0.3 -0.1,0.1 -0.4,0.3 -0.6,0.5 0.3,0.1 0.5,0.1 0.5,0.3 0,0.2 0,1.3 0,1.5 0.1,0 0.3,0 0.5,0 0,-0.1 0,-1.6 0,-1.7 0.1,0 0.1,-0.1 0.2,-0.1 0.1,0 0.2,0.3 0.4,0.4 0.1,-0.1 0.3,-0.3 0.4,-0.4 z m -2.1,2.9000002 c -0.3,0 -0.7,0.4 -0.8,0.6 0,0.1 0,0.6 0.1,0.6 0,0 0,0 0.1,0.1 -0.2,0.2 -0.4,0.3 -0.4,0.5999998 0,0.2999995 0.2,0.4999995 0.5,0.5999995 0.1,-0.2 0.4,-0.4 0.6,-0.4 0,0.2 0,0.4 0.2,0.5 0.1,-0.1 0.5,-0.5 0.6,-0.5 0.1,-0.1 0,-0.1999995 -0.1,-0.1 0,0 -0.2,0 -0.2,-0.1 0,-0.1 0,-1.2999998 0,-1.2999998 -0.2,-0.2 -0.4,-0.6 -0.6,-0.5999995 z m 0,1.2 c -0.3,0.2 -0.4,0.2 -0.6,0 -0.1,-0.1 -0.1,-0.4 0,-0.5 0.1,-0.1 0.3,-0.3 0.4,-0.3 0.1,0 0.3,0.3 0.3,0.5 -0.1,0 -0.1,0.1 -0.1,0.3 z m 0,0.5999998 c 0,0 0,0.1 0,0.1999995 0,0 -0.1,0 -0.2,0.1 -0.1,-0.1 -0.7,-0.2999995 -0.3,-0.5999993 0.2,0.1 0.3,0 0.6,-0.1 -0.1,0.2 -0.1,0.3 -0.1,0.3999998 z m -0.2,-2.5 c 0,0 -0.1,-0.1 -0.1,-0.2 0,0 0,-0.8 0,-0.9 0,-0.1 -0.2,-0.1 -0.2,0 0,0.1 0,0.3 -0.1,0.5 -0.3,0.5 -0.9,0.7000002 -1.3,0.1 -0.2,-0.2 -0.2,-0.5 -0.2,-0.7 0,-0.3 0.2,-0.6 0.2,-0.7 0.6,-0.7 1.3,-0.2 1.3,0.1 0,0.2 0.1,0.4 0.1,0.6 0,0.1 0.2,0.1 0.2,0 0,-0.1 0,-1.1 0,-1.2 0,-0.1 -0.1,-0.1 -0.1,0 0,0.2 -0.1,0.2 -0.2,0.1 -0.3,-0.1 -0.9,-0.2 -1.2,0 -0.4,0.1 -0.9000004,0.6 -0.9000004,1.1 0,0.9 0.3,0.9 0.7000004,1.2 0.4,0.2000002 0.8,0.1000002 1.3,0 0.2,0 0.2,0 0.3,0.2000002 0.2,0.1 0.3,-0.1 0.2,-0.2000002 z M 9.7115206,8.5334837 c -0.2999995,0.5 -0.4999995,1.2 0,1.5999993 0.2,0.2 0.5000004,0.4 1.0000004,0.3 0.1,-0.2 0.1,-0.3 0.3,-0.4999995 -0.3,0 -0.6,0 -0.9,-0.1999998 -0.4000004,-0.4 -0.3000004,-1 -0.1,-1.3 0.3,-0.4 0.7,0.2 0.7,0.3 0.1,-0.1 0.2,-0.3 0.4,-0.4 -0.1,-0.2 -0.3,-0.4 -0.4,-0.5 -0.3,0.1 -0.8000004,0.4 -1.0000004,0.7 z m 0.2,3.9999993 c -0.1,0.8 0.7000004,1.3 1.1000004,1.5 0.1,-0.2 0.3,-0.5 0.5,-0.7 0.1,-0.2 0,-0.2 -0.1,-0.1 -0.2,0.2 -0.7,0 -0.8,-0.2 0.2,-0.2 0.9,-0.7 1.2,-1 -0.2,-0.2 -0.5,-0.6 -0.5,-0.9 -0.4,0.2 -1.3,0.5 -1.4000004,1.4 z m 0.8000004,-0.9 c 0.1,0.2 0.3,0.6 0.4,0.6 -0.2,0.2 -0.6,0.5 -0.8,0.6 -0.2,-0.3 -0.3,-0.8 0.4,-1.2 z m 1.7,-0.3 c -0.2,0.1 -0.3,0.3 -0.5,0.5 0.1,0.1 0.3,0.3 0.3,0.5 0,0.2 0,1.2 0,1.5 0.2,0 0.1,0 0.5,0 0,-0.2 0,-1.5 0,-1.7 0.1,-0.1 0.1,-0.1 0.3,-0.2 0.1,0.1 0.3,0.1 0.3,0.3 0,0.2 0,0.8 0,1 0,0.3 0,0.5 0.1,0.8 0.1,-0.1 0.6,-0.4 0.6,-0.5 0.1,-0.1 0,-0.1 -0.1,-0.1 -0.1,0 -0.1,0 -0.1,0 0,-0.1 0,-0.8 -0.1,-1.3 0,-0.5 -0.2,-0.6 -0.4,-0.6 -0.1,0.1 -0.4,0.3 -0.6,0.5 -0.1,-0.2 -0.2,-0.5 -0.3,-0.7 z m 1.8,-1.1 c 0.1,-0.1 0.3,-0.2999995 0.3,-0.3999995 0.1,-0.1 0,-0.1999998 -0.1,-0.1 -0.1,0.1 -0.3,-0.1 -0.3,-0.1 0,-0.1 -0.2,-1.1 -0.1,-1.1 0,0 0.6,-0.1 0.7,-0.1 0,0 0.1,-0.2 0,-0.2 -0.1,0 -0.6,0 -0.6,0 0,-0.1 -0.1,-0.5 0,-0.8 0.1,-0.1 0,-0.3 0,-0.1 0,0.1 -0.5,0.8 -0.7,0.9 -0.2,0.1 -0.2,0.1 0,0.2 0.1,0 0.2,0.1 0.2,0.1 0,0.5 -0.1,1.1 0.1,1.4 0,0.2999995 0.3,0.3999995 0.5,0.2999995 z m 2.2,0.3 c -0.1,0.1 -0.2,0.3 -0.5,0.4 0.1,0.1 0.3,0.3 0.5,0.4 0.1,-0.1 0.3,-0.3 0.4,-0.5 -0.2,-0.1 -0.3,-0.1 -0.4,-0.3 z m -1.1,-0.5999995 c 0.2,0 0.6,0.1000005 0.9,0.1000005 0.4,0 0.8,-0.6999998 0.6,-1.1999998 -0.2,-0.5 -0.7,-0.4 -1.1,-0.5 -0.3,-0.1 -0.5,-0.3 -0.1,-0.6 0.5,-0.3 1,0.2 1,0.3 0.1,0.1 0.1,0.1 0.1,0 0,-0.4 0,-0.2 0,-0.6 0,-0.1000002 -0.1,-0.1000002 -0.1,0 0,0.1 -0.2,0.1 -0.3,0.1 -0.1,0 -0.5,0 -0.8,0.1 -0.2,0.1 -0.6,0.5 -0.4,0.9 0.1,0.2 1,0.5 1.2,0.6 0.2,0.1 0.3,0.5 0,0.6999998 -0.3,0.2 -1,0 -1.1,-0.1 -0.1,-0.1 -0.2,-0.3 -0.2,-0.5 0,-0.3 -0.1,-0.3 -0.1,-0.1 0,0.2 0,0.8 0.1,0.9 0.1,0.1 0.2,0.1 0.2,0 0,-0.1000005 0.1,-0.1000005 0.1,-0.1000005 z m -0.9,1.8999995 c -0.2,0.1 0.2,0.3 0.2,0.3 0,0.5 0,1.1 0.1,1.3 0.1,0.2 0.5,0.3 0.5,0.1 0,-0.1 0.3,-0.5 0.4,-0.6 0.1,-0.1 0,-0.2 -0.1,-0.1 -0.2,0.2 -0.3,0.1 -0.5,0 0,-0.1 -0.1,-0.8 0,-0.8 0,0 0.4,0 0.4,0 0,0 0,-0.2 0,-0.2 -0.1,0 -0.4,0 -0.4,0 0,-0.1 0,-0.6 0.1,-0.8 0,-0.1 0,-0.2 -0.1,0 0,0 -0.4,0.6 -0.6,0.8 z"
     style="fill:#800000" /></g></svg>